<?xml version="1.0" encoding="UTF-8"?>
<svg xmlns="http://www.w3.org/2000/svg" xmlns:xlink="http://www.w3.org/1999/xlink" width="357px" height="321px" viewBox="0 0 357 321" version="1.1">
  <title>Group 18 Copy</title>
  <defs>
    <rect id="path-1" x="0" y="0" width="357" height="321"></rect>
    <rect id="path-3" x="0" y="0" width="237" height="237" rx="118.5"></rect>
  </defs>
  <g id="Page-1" stroke="none" stroke-width="1" fill="none" fill-rule="evenodd">
    <g id="首页定稿" transform="translate(-542.000000, -2812.000000)">
      <g id="Group-18-Copy" transform="translate(542.000000, 2812.000000)">
        <mask id="mask-2" fill="white">
          <use xlink:href="#path-1"></use>
        </mask>
        <use id="Mask" fill="#E0E9FF" xlink:href="#path-1"></use>
        <g id="Group-16-Copy" mask="url(#mask-2)">
          <g transform="translate(53.000000, 61.000000)">
            <mask id="mask-4" fill="white">
              <use xlink:href="#path-3"></use>
            </mask>
            <use id="Mask" stroke="none" fill="#9AD0FC" fill-rule="evenodd" xlink:href="#path-3"></use>
            <g id="Group-16-Copy" stroke="none" stroke-width="1" fill="none" fill-rule="evenodd" mask="url(#mask-4)">
              <g transform="translate(102.000000, 65.775000)">
                <path d="M25.8984375,0 L156.253906,0 C163.882339,-1.40132043e-15 170.066406,6.18406689 170.066406,13.8125 L170.066406,109.085682 C170.066406,116.714115 163.882339,122.898182 156.253906,122.898182 L142.009766,122.898182 L142.009766,122.898182 C138.844401,123.186675 136.542318,124.917635 135.103516,128.091062 C133.63593,131.327974 133.986484,141.891486 136.830078,151.891767 C138.16822,156.597711 140.92617,161.295603 142.873047,164.873969 C144.046544,167.030861 137.39561,166.026861 124.744141,152.324507 C121.884276,149.22709 116.141783,141.507871 107.516663,129.166851 C104.77111,125.238448 100.280318,122.898182 95.4875727,122.898182 L25.8984396,122.898182 C18.2700053,122.898184 12.0859375,116.714116 12.0859375,109.085682 C12.0859375,103.203662 12.0859375,99.2972742 12.0859375,97.366517 C12.0859375,92.6063762 12.5175781,90.8754159 9.06445312,87.4134953 C5.61132812,83.9515747 0,84.9613015 0,79.6241739 C0,74.2870463 5.1796875,73.5658129 8.6328125,68.372932 C10.9348958,64.9110114 12.0859375,61.5933374 12.0859375,58.4199102 L12.0859375,13.8125 C12.0859375,6.18406689 18.2700044,-2.15139325e-15 25.8984375,0 Z" id="Rectangle-Copy-3" stroke="none" fill="#0000FF" fill-rule="evenodd"></path>
                <path d="M41.6393393,74.2421875 C41.7925402,77.1197917 41.9457411,79.9973958 42.098942,82.875" id="Path-Copy-2" stroke="#000000" stroke-width="4.31640625" fill="none" stroke-linecap="round"></path>
                <path d="M62.3580893,74.2421875 C62.5112902,77.1197917 62.6644911,79.9973958 62.817692,82.875" id="Path-Copy-3" stroke="#000000" stroke-width="4.31640625" fill="none" stroke-linecap="round"></path>
              </g>
            </g>
            <g id="Group" stroke="none" stroke-width="1" fill="none" fill-rule="evenodd" mask="url(#mask-4)">
              <g transform="translate(-67.000000, 66.000000)">
                <path d="M23.4634938,0 L129.636941,0 C135.374566,-0.00805388599 140.02583,4.6432101 140.02583,10.380835 C140.02583,10.3835207 140.025829,10.3862063 140.017773,10.3888858 L139.998041,35.8322836 C139.995272,39.4042817 141.752799,42.7482507 144.696421,44.7716808 C151.355204,49.3488936 158.291519,51.6375 165.505365,51.6375 C174.031834,51.6375 166.671542,55.7506833 143.42449,63.97705 C141.387496,64.6978746 140.02583,66.6241303 140.02583,68.784902 L140.02583,80.1361111 C140.02583,85.873736 135.374566,90.525 129.636941,90.525 L23.4634938,90.525 C17.7258689,90.525 13.074605,85.873736 13.074605,80.1361111 L13.074605,60.3337104 C13.074605,55.5142833 10.6078728,51.0301813 6.53730248,48.45 L3.76910354,46.6953429 C1.42220267,45.2077307 3.40287314e-16,42.6224068 0,39.84375 C-3.34369273e-16,37.1134177 1.55695165,34.6221015 4.01109939,33.4254924 L6.53730248,32.19375 C10.5370802,30.2435126 13.074605,26.1831576 13.074605,21.7332534 L13.074605,10.3888889 C13.074605,4.65126399 17.7258689,1.0539846e-15 23.4634938,0 Z" id="Rectangle-Copy-4" stroke="none" fill="#65BBFF" fill-rule="evenodd" transform="translate(84.468750, 45.262500) scale(-1, 1) translate(-84.468750, -45.262500) "></path>
                <path d="M110.436551,49.0875 C110.549684,52.0625 110.662816,55.0375 110.775949,58.0125" id="Path" stroke="#000000" stroke-width="3.1875" fill="none" stroke-linecap="round"></path>
                <path d="M125.736551,49.0875 C125.849684,52.0625 125.962816,55.0375 126.075949,58.0125" id="Path-Copy" stroke="#000000" stroke-width="3.1875" fill="none" stroke-linecap="round"></path>
              </g>
            </g>
          </g>
        </g>
        <path d="M269,57 C277.358883,65.4360095 286.02555,69.6540142 295,69.6540142 C303.97445,69.6540142 312.641117,65.4360095 321,57 C312.563991,65.5879935 308.345986,74.2546601 308.345986,83 C308.345986,91.7453399 312.563991,100.412007 321,109 C312.454885,100.745569 303.697429,96.6183528 294.727633,96.6183528 C285.757837,96.6183528 277.181959,100.745569 269,109 C277.526799,100.291623 281.790198,91.5795623 281.790198,82.8638165 C281.790198,74.1480707 277.526799,65.5267985 269,57 Z" id="Rectangle-Copy" fill="#448AFF" mask="url(#mask-2)" transform="translate(295.000000, 83.000000) rotate(-315.000000) translate(-295.000000, -83.000000) "></path>
        <path d="M245.38125,29.6777782 C249.399944,33.733552 253.56661,35.7614389 257.88125,35.7614389 C262.19589,35.7614389 266.362556,33.733552 270.38125,29.6777782 C266.325476,33.8066212 264.297589,37.9732879 264.297589,42.1777782 C264.297589,46.3822686 266.325476,50.5489352 270.38125,54.6777782 C266.273022,50.7093016 262.062706,48.7250632 257.750304,48.7250632 C253.437902,48.7250632 249.314884,50.7093016 245.38125,54.6777782 C249.480672,50.4910587 251.530384,46.3025678 251.530384,42.1123054 C251.530384,37.922043 249.480672,33.7772006 245.38125,29.6777782 Z" id="Rectangle-Copy-2" fill="#448AFF" mask="url(#mask-2)" transform="translate(257.881250, 42.177778) rotate(-315.000000) translate(-257.881250, -42.177778) "></path>
        <path d="M172.085715,61 C237.531457,61 290.585715,114.054257 290.585715,179.5 C290.585715,224.655528 265.328859,263.912 228.171429,283.913138 C251.200966,262.295998 265.585715,231.577868 265.585715,197.5 C265.585715,132.054257 212.531457,79 147.085715,79 C126.795499,79 107.696345,84.099537 91,93.0868617 C112.196656,73.187838 140.717874,61 172.085715,61 Z" id="Combined-Shape" fill="#448AFF" mask="url(#mask-2)"></path>
      </g>
    </g>
  </g>
</svg>
