<svg width="299" height="263" viewBox="0 0 299 263" fill="none" xmlns="http://www.w3.org/2000/svg">
<g opacity="0.5">
<mask id="mask0_132_126" style="mask-type:alpha" maskUnits="userSpaceOnUse" x="0" y="0" width="299" height="263">
<path d="M298.5 131.5C298.5 203.791 231.853 262.5 149.5 262.5C67.1474 262.5 0.5 203.791 0.5 131.5C0.5 59.209 67.1474 0.5 149.5 0.5C231.853 0.5 298.5 59.209 298.5 131.5Z" fill="#C02626" stroke="black"/>
</mask>
<g mask="url(#mask0_132_126)">
<path d="M62.6364 108.455H69.0909L82 130.182H82.5455L95.4545 108.455H101.909L85.0909 135.818V155H79.4545V135.818L62.6364 108.455ZM106.358 155H100.449L117.54 108.455H123.358L140.449 155H134.54L120.631 115.818H120.267L106.358 155ZM108.54 136.818H132.358V141.818H108.54V136.818ZM184.608 108.455V155H179.153L153.79 118.455H153.335V155H147.699V108.455H153.153L178.608 145.091H179.062V108.455H184.608ZM227.705 123C227.205 121.47 226.545 120.098 225.727 118.886C224.924 117.659 223.962 116.614 222.841 115.75C221.735 114.886 220.477 114.227 219.068 113.773C217.659 113.318 216.114 113.091 214.432 113.091C211.674 113.091 209.167 113.803 206.909 115.227C204.652 116.652 202.856 118.75 201.523 121.523C200.189 124.295 199.523 127.697 199.523 131.727C199.523 135.758 200.197 139.159 201.545 141.932C202.894 144.705 204.72 146.803 207.023 148.227C209.326 149.652 211.917 150.364 214.795 150.364C217.462 150.364 219.811 149.795 221.841 148.659C223.886 147.508 225.477 145.886 226.614 143.795C227.765 141.689 228.341 139.212 228.341 136.364L230.068 136.727H216.068V131.727H233.795V136.727C233.795 140.561 232.977 143.894 231.341 146.727C229.72 149.561 227.477 151.758 224.614 153.318C221.765 154.864 218.492 155.636 214.795 155.636C210.674 155.636 207.053 154.667 203.932 152.727C200.826 150.788 198.402 148.03 196.659 144.455C194.932 140.879 194.068 136.636 194.068 131.727C194.068 128.045 194.561 124.735 195.545 121.795C196.545 118.841 197.955 116.326 199.773 114.25C201.591 112.174 203.742 110.583 206.227 109.477C208.712 108.371 211.447 107.818 214.432 107.818C216.886 107.818 219.174 108.189 221.295 108.932C223.432 109.659 225.333 110.697 227 112.045C228.682 113.379 230.083 114.977 231.205 116.841C232.326 118.689 233.098 120.742 233.523 123H227.705Z" fill="#C02626"/>
</g>
</g>
</svg>
